<?xml version="1.0" encoding="UTF-8"?>
<!-- Created with Inkscape (http://www.inkscape.org/) -->
<svg width="55cm" height="35cm" version="1.1" viewBox="0 0 550 350" xml:space="preserve" xmlns="http://www.w3.org/2000/svg"><g><g><path d="m526.54 187.37a11.225 14.644 0 0 0-11.225 14.645 11.225 14.644 0 0 0 11.225 14.645 11.225 14.644 0 0 0 11.225-14.645 11.225 14.644 0 0 0-11.225-14.645zm0.0412 6.2139a5.8872 8.4891 0 0 1 5.8871 8.4889 5.8872 8.4891 0 0 1-5.8871 8.4894 5.8872 8.4891 0 0 1-5.8871-8.4894 5.8872 8.4891 0 0 1 5.8871-8.4889z" stroke-width=".2669"/><path d="m279.43 186.88a11.225 14.644 0 0 0-11.225 14.645 11.225 14.644 0 0 0 11.225 14.645 11.225 14.644 0 0 0 11.225-14.645 11.225 14.644 0 0 0-11.225-14.645zm0.0412 6.2139a5.8872 8.4891 0 0 1 5.8871 8.4889 5.8872 8.4891 0 0 1-5.8871 8.4894 5.8872 8.4891 0 0 1-5.8871-8.4894 5.8872 8.4891 0 0 1 5.8871-8.4889z" stroke-width=".2669"/><path d="m259.62 215.38 5.6154 0.0153-0.11071-27.621-5.4669 9e-3z" stroke-width=".265"/><path d="m423.68 172.85 5.6154 0.0153-0.11071-27.621-5.4669 9e-3z" stroke-width=".265"/></g><g stroke-width=".26458"><path d="m227.84 187.62-1.2552 0.07338-10.702 27.457 5.0927 0.07338 1.4759-4.0592h8.8568l1.5503 4.2809h5.609l-10.628-27.825zm-0.88573 10.48 2.8045 8.4879-5.7568-0.0739 2.9523-8.414z"/><path d="m325.85 187.64-1.2552 0.0734-10.702 27.457 5.0927 0.0734 1.4759-4.0592h8.8568l1.5503 4.2809h5.609zm-0.88573 10.48 2.8045 8.4879-5.7568-0.0739z"/><path d="m194.88 215.37-9e-3 -27.641 1.3285 0.0184 12.889 14.826-9e-3 -14.808 5.1112 0.0277v27.622l-1.6976-0.0277-12.455-14.545-0.13838 14.526z"/><path d="m292.81 215.34-9e-3 -27.641 1.3285 0.0184 12.889 14.826-9e-3 -14.808 5.1112 0.0277v27.622l-1.6976-0.0277-12.455-14.545-0.13838 14.526z"/><path d="m317.95 172.74-9e-3 -27.641 1.3285 0.0184 12.889 14.826-9e-3 -14.808 5.1112 0.0277v27.779l-2.0107-0.0277-12.142-14.701-0.13838 14.526z"/></g><g><path d="m350.02 144.41a11.225 14.644 0 0 0-11.225 14.645 11.225 14.644 0 0 0 11.225 14.645 11.225 14.644 0 0 0 11.225-14.645 11.225 14.644 0 0 0-11.225-14.645zm0.0412 6.2139a5.8872 8.4891 0 0 1 5.8871 8.4889 5.8872 8.4891 0 0 1-5.8871 8.4894 5.8872 8.4891 0 0 1-5.8871-8.4894 5.8872 8.4891 0 0 1 5.8871-8.4889z" stroke-width=".2669"/><path d="m486.99 215.85 5.6154 0.0153-0.11071-27.621-5.4669 9e-3z" stroke-width=".265"/><path d="m387.37 144.2a11.225 14.644 0 0 0-11.225 14.645 11.225 14.644 0 0 0 11.225 14.645 11.225 14.644 0 0 0 11.225-14.645 11.225 14.644 0 0 0-11.225-14.645zm0.0412 6.2139a5.8872 8.4891 0 0 1 5.8871 8.4889 5.8872 8.4891 0 0 1-5.8871 8.4894 5.8872 8.4891 0 0 1-5.8871-8.4894 5.8872 8.4891 0 0 1 5.8871-8.4889z" stroke-width=".2669"/><path d="m461.9 144.43a11.225 14.644 0 0 0-11.225 14.645 11.225 14.644 0 0 0 11.225 14.645 11.225 14.644 0 0 0 11.225-14.645 11.225 14.644 0 0 0-11.225-14.645zm0.0412 6.2139a5.8872 8.4891 0 0 1 5.8871 8.4889 5.8872 8.4891 0 0 1-5.8871 8.4894 5.8872 8.4891 0 0 1-5.8871-8.4894 5.8872 8.4891 0 0 1 5.8871-8.4889z" stroke-width=".2669"/><path d="m281.65 145.25v27.678h13.211v-5.8308h-8.3402v-5.6093h4.7975v-5.6832h-4.7975v-5.0189h8.1926v-5.6093z" stroke-width=".265"/><path d="m390.44 187.83v27.678h13.733v-5.8308h-8.6697v-5.6093h4.987v-5.6832h-4.987v-5.0189h8.5162v-5.6093z" stroke-width=".27018"/><path d="m446.1 188.36v27.678h13.629v-5.8308h-8.6038v-5.6093h4.9491v-5.6832h-4.9491v-5.0189h8.4515v-5.6093z" stroke-width=".26915"/><path d="m259.84 145.33h18.682v5.8677h-6.6988v21.736h-5.1357v-21.847h-6.8477z" stroke-width=".26612"/><path d="m338.11 187.84h5.2403v21.478h8.7092v6.2177l-14.097-0.0522z" stroke-width=".265"/><path d="m363.42 144.87h5.2403v21.802h8.7092v6.3114l-14.097-0.053z" stroke-width=".26699"/><path d="m368 187.84v27.456l9.0046-0.14728c3.7725-0.75437 6.5113-2.5429 8.1189-5.4622 1.753-4.5494 4.0021-8.8747-0.1478-16.09-1.677-3.4224-4.6631-4.7169-7.8972-5.609l-9.0785-0.1478zm8.0393 5.965c1.2861 0.19002 3.1429 1.0096 3.6964 1.9322 3.5776 5.0555 1.9512 8.7429 0.25787 11.699-1.6661 1.7324-4.0293 2.4619-6.6792 2.0298v-15.647l2.7249-0.01344z" stroke-width=".265"/><path d="m462.89 188.28h5.3746l4.542 7.8974 4.4663-7.9712h6.056l-7.6616 12.938 9.1756 14.739h-6.813l-5.46-9.2205-5.445 9.1953h-5.9004l8.4662-14.297z" stroke-width=".26838"/><path d="m451.02 186.55 2.401-3.1174 1.4716 1.8008-1.1037 1.336z" stroke-width=".27808"/><path d="m385.36 142.27 2.9009-3.9388 1.3573 1.6766-1.8629 2.342z" stroke-width=".27026"/><g stroke-width=".265"><path d="m417.16 215.74 4.5022-27.604h1.2547l7.676 16.976 7.5283-17.049h1.1071l4.4284 27.751h-5.3141l-1.6976-12.104-5.4617 12.252h-1.4761l-5.757-12.547-2.0666 12.547z"/><path d="m418.38 154.09 0.31051-7.0275c-1.9722-2.0288-4.7204-3.0257-8.0234-2.8442-3.5943 0.50728-5.9378 2.7343-7.9712 5.3879-1.5165 2.5577-2.0702 5.3904-2.2142 8.3402-0.16454 2.9031-0.13417 5.8062 1.2547 8.7092 1.048 2.5165 2.8146 4.5197 5.2403 6.0522 2.0965 1.4544 5.0772 1.1815 6.7903 0.95949 2.9915-0.54965 4.4637-1.6159 5.9784-2.5832v-13.359h-8.9307v5.5355h4.0594v3.9118c-1.2551 0.52189-2.9035 0.55964-4.7974 0.29523-2.7544-1.592-2.9492-2.8183-3.7642-4.1332-1.1055-4.3171-0.5209-6.3972 0-8.5616 0.80068-1.5135 1.466-3.0427 4.3177-4.3177 2.8346-0.4056 4.0768 0.57571 5.4348 1.4562z"/><path d="m98.534 127.66c2.0571 5.8302 4.7833 10.283 2.2963 25.468 4.4883 0.83052 8.9766 2.8292 13.465 5.3233 7.6642 4.7423 7.8721 8.5225 7.0244 12.167-0.63301 1.0857-2.1226 2.6954-1.983 3.3721 0.0744 0.7343 0.40141 1.1597 1.2073 0.96741 3.5035-0.93056 5.3404-3.5656 6.6944-6.6944 1.775-6.5187 1.6686-11.586 0-15.448-2.1411-6.278-4.9183-9.9208-7.7354-13.398-4.745-4.8274-9.1849-6.7575-13.662-9.0434-2.494-1.1583-4.9165-2.0064-7.3065-2.7138z"/><path d="m14.822 93.524 17.744-6.1584 4.3839-20.563c0.55279-1.4353 1.7795-2.1123 3.4445-2.2963h32.879c1.0691 0.37641 2.1032 1.1596 2.192 2.192l4.8014 20.771 11.586 3.7576 15.761-14.196c1.1912-0.74558 2.6036-0.49615 4.0708 0l25.886 18.579c1.2451 1.0564 1.2546 2.3374 0.98324 3.6695l-8.1854 19.503 7.4109 9.916 19.728-2.2963c2.224-0.14548 4.0432 0.31611 4.6075 2.6602l10.006 29.489c0.32054 2.3256-0.24673 3.6268-1.2009 4.4817l-18.214 10.653 0.31313 12.525 17.849 10.02c1.7522 1.4274 1.7822 3.0793 1.2861 4.7999l-9.1146 29.436c-0.8545 1.6589-2.2787 2.6722-4.6075 2.6602l-19.817-2.1383-7.2022 10.125 8.3503 18.371c0.0849 1.3646 0.70083 2.5119-1.2633 4.7146l-25.458 18.771c-3.0563 1.0046-4.5033-0.10823-5.7146-1.5312l-14.117-12.351-11.482 4.0708-4.1752 20.25c-0.87358 1.4342-2.0681 2.8661-4.2543 2.7804l-33.427 0.0378c-1.7923-0.61957-2.817-1.7643-3.2879-3.288l-4.3317-19.362c-6.3762-1.7205-12.868-3.3376-17.431-6.6803l0.10438-10.542c15.763 8.668 23.471 7.0058 28.987 6.4104 10.733 4.8421 18.27 2.4712 26.96 0.7918 4.158-1.1964 8.1283-2.8432 11.795-5.219 4.9599-3.7534 5.9083-6.1279 7.9328-8.8722 2.2431-4.4243 2.9268-7.7881 2.7139-10.542 7.072 0.45407 10.32-2.5517 13.336-5.7669 2.1298-3.6037 3.6238-7.6666 3.9856-12.547-0.37585-9.0669-1.1187-9.5702-1.7714-12.178 4.3696-3.5683 8.1966-4.4237 11.883-4.576 3.7422-0.0462 7.6764 0.37366 12.104 1.9928 1.5598-4.4802 2.7193-10.361 3.6904-16.902 0.59116-8.4808 0.33224-16.308-0.88569-23.397-2.326-9.497-4.4458-15.182-6.495-19.559-4.1745-8.0336-8.5381-13.987-12.99-18.968-4.7717-4.9795-9.8933-9.4923-15.5-13.359-10.339-6.2351-14.988-7.6557-20.076-9.4473-9.4595-2.7929-10.426-2.2282-14.466-2.8785-4.907-0.59695-10.382-0.85977-17.64-0.0738-4.3862 0.54125-7.2755 1.0825-9.2997 1.6238 3.5257-0.0256 7.5922 0.76009 11.662 1.55 2.9526 0.68397 8.7446 1.6269 14.866 3.6814 5.1722 1.5555 10.132 3.8622 15.026 6.9468 3.7413 1.9267 8.1228 4.8777 12.547 7.8974 3.819 5.6907 5.3088 14.145 5.6093 18.452-6.2927-4.0785-10.827-6.399-15.204-8.5616-14.197-6.5693-11.64-4.7621-16.459-6.6426-10.115-3.163-14.734-3.5784-20.666-4.6498-5.5685-0.69176-11.149-1.3999-16.311-1.55l-15.204-0.59046z"/><path d="m15.13 127.46c-0.70906-1.4071-0.86235-3.0226 0-5.0189 15.372 0.35847 30.838 1.492 46.794 6.7164-1.3285 1.4841-2.6571 2.3247-3.9856 6.4212-30.915-8.3054-31.583-6.4366-42.808-8.1188z"/><path d="m14.835 130.34c20.04 1.5056 27.612 4.21 38.011 6.6426-0.45613 2.0779-0.47858 4.5895-0.14761 7.4545-31.831-8.1944-26.231-5.8314-37.642-8.2664-0.83995-1.4328-0.53493-3.629-0.22142-5.8308z"/></g><path d="m69.882 130.53a7.9328 7.9328 0 0 0-7.9328 7.9328 7.9328 7.9328 0 0 0 7.9328 7.9328 7.9328 7.9328 0 0 0 7.9323-7.9328 7.9328 7.9328 0 0 0-7.9323-7.9328zm3.1311 3.497a2.4529 2.4529 0 0 1 2.4531 2.4526 2.4529 2.4529 0 0 1-2.4531 2.4531 2.4529 2.4529 0 0 1-2.4531-2.4531 2.4529 2.4529 0 0 1 2.4531-2.4526z" stroke-width=".30748"/><g stroke-width=".265"><path d="m15.352 147.25c-1.048-0.62983-1.4912-6.5933 0-7.6021 12.484 2.3562 24.301 3.8792 38.232 8.045 0.87412 2.5003 3.5287 5.9897 6.126 9.4473-6.0866 0.97914-13.018-0.57481-20.076-2.5094-9.7309-2.5966-16.813-4.9725-24.283-7.3807z"/><path d="m15.647 151.38c-2.7413 1.899-1.3807 12.253 0 14.319 4.8804-0.44284 12.332-0.88568 19.485-1.3285 2.6133-0.0492 5.5324-0.0984 12.4-0.14762 2.3-1.4515 4.115-2.9031 5.8308-4.3546-5.0211-0.56965-10.731-1.4909-13.359-2.288l-11.957-3.0999c-6.2435-1.9712-9.668-2.6895-12.4-3.0999z"/><path d="m15.866 168.26c-2.3889 0.76548-1.5192 8.8436 0 8.1416 8.6225 0.0126 16.34 0.4129 24.007 0.83503 4.416 0.17547 11.973 1.4728 20.25 3.027-3.7886-5.217-2.1237-9.424 1.5657-13.256-6.3964-0.36258-12.495-0.57605-18.058-0.5219-9.2149 0.19096-18.416 0.24033-27.765 1.7744z"/><path d="m15.448 179.64c-0.71006-1.1992-1.6921 10.166-0.26095 15.187 7.7675-4.9058 17.45-10.125 27.295-15.031-8.8982-0.84556-18.702-1.4084-27.034-0.15657z"/><path d="m16.231 225.72c-6.5314-7.9847-3.0934-23.303-1.096-26.878 3.5346-3.8085 19.408-12.963 29.331-18.788l3.4445 0.41752c-2.4087 2.7937-2.5403 2.6596-9.3941 11.169-3.5965 4.8461-7.5226 10.328-13.047 18.893-3.8939 6.7347-6.395 10.818-9.2375 15.187z"/><path d="m41.021 256.56c-11.011 1.2664-26.073-2.1355-28.913-10.751 3.6385-9.8576 8.1882-17.589 12.63-25.573 8.0799-16.438 19.681-30.888 26.304-39.351l3.7576 0.62627c-2.251 5.4406-4.25 10.593-5.5321 14.926-2.3541 10.082-5.1746 20.009-6.3671 30.479-0.81198 7.8385-1.6414 15.485-1.8788 29.644z"/><path d="m88.421 239.73c-1.4377 16.5-24.927 23.517-38.97 19.337-1.711-12.438-0.66898-22.122-0.59046-32.77 0.33462-13.139 1.8323-19.068 3.0999-26.423 1.2241-7.1969 3.0567-13.075 5.4617-17.714l5.9046 1.3285c-0.97899 12.123-0.33874 23.1 3.3951 31.885 2.0584 4.8103 4.435 9.72 9.5949 15.5 3.4675 3.2359 6.7371 6.5708 12.104 8.8569z"/><path d="m105.74 210.22c3.4917 4.043 0.0942 20.907-9.4985 25.364-7.084-1.5044-12.122-4.2365-15.031-8.246-5.1904-4.9735-8.9704-10.37-11.377-16.179-4.5883-10.668-5.8054-19.562-5.1146-27.452h0.83503c2.1018 8.0279 4.6534 12.458 7.3065 16.074 2.2643 2.4989 2.7514 3.9755 11.586 9.6029 8.2161 4.5918 15.016 3.7208 21.293 0.83503z"/><path d="m66.907 183.97h1.8788c1.5548 3.1597 1.8366 5.5555 7.3065 11.064 1.8749 1.4623 2.982 2.8656 8.2981 4.5927 1.5985 0.34573 4.125 0.55888 7.6719 0.62628 2.0465 2.0791 4.8238 3.7471 11.273 4.1752-1.003 1.1585-1.0575 2.3515-7.5153 4.1752-5.0187 0.8047-8.2822-0.6859-11.534-2.192-3.0021-1.3831-5.5884-3.4938-8.0372-5.8452-4.4913-5.277-8.5551-10.633-9.3419-16.596z"/><path d="m69.222 182.62c1.8046-0.87715 3.4537-2.3785 4.8433-4.1548 0.25564 4.0126 0.0043 8.7651 4.7606 15.057 0.31395 0.89692 0.08925 1.1953-0.84878 0.70117-3.4393-2.6612-6.626-5.9075-8.7551-11.603z"/></g><path d="m66.592 168.5a5.9599 5.9599 0 0 0-5.9598 5.9598 5.9599 5.9599 0 0 0 5.9598 5.9598 5.9599 5.9599 0 0 0 5.9604-5.9598 5.9599 5.9599 0 0 0-5.9604-5.9598zm-0.19224 4.793c0.64274-0.00181 1.3217 0.06157 1.7203 0.22221 0.45486 0.47938 0.4214 1.816 0 1.9312 0.021824 0.22799-2.9959 0.23409-3.2225 0-0.30818-0.15921-0.44164-1.499 0-1.9834 0.2531-0.1012 0.8595-0.1682 1.5022-0.17001z" stroke-width=".31353"/><g stroke-width=".265"><path d="m51.148 164c12.2-8.8973 33.037-8.2804 43.915-4.1332-0.22744 0.0795-14.029 0.80512-19.928 14.023-1.268-6.5318-4.6298-10.151-23.987-9.8902z"/><path d="m55.798 137.95 2.0666 0.66426c0.07044 4.9236 3.3763 8.5084 9.1521 11.071 4.4406 0.45937 8.7927-0.2757 12.842-5.0927 1.9023-2.803 2.1061-5.4362 2.0666-8.045 4.7394 1.6641 10.529 4.3784 17.271 8.045-0.24493 3.6155-0.55843 7.2995-2.7309 12.842-5.6854-1.9395-10.749-3.079-15.057-3.2475-9.7432-0.10202-14.377 0.5259-17.271 1.4023-8.1566-4.7112-9.1616-10.977-8.3402-17.64z"/><path d="m86.217 167.11c1.2302 0.34461 2.4 0.64897 4.4883 1.5657-0.94098 0.49765-2.1059 0.84604-3.3401 1.1482 1.6059 0.50311 3.0859 0.96751 5.927 1.8507 0.54877-0.94299 0.57859-1.8118 0.44284-2.6571 1.2712-0.19023 2.3607-0.45312 2.6571-1.0333l-0.14762-0.44285c-1.8089 0.0246-2.4409 0.0492-3.0999 0.0738-2.31-0.51665-3.7614-1.0333-5.3141-1.55 3.8329-2.7478 7.1864-3.441 10.333-3.2475l1.8452-7.1593 6.4212 2.288c0.82578 0.46573 0.99973 1.3448 0.84878 2.1035-0.30429 2.6109-0.93127 4.8394-2.694 6.0891-1.7141-0.20353-3.43-0.37672-5.2403 0.95949 3.1602 6.1074 5.0805 11.36 5.3879 15.5-0.0187 1.6601-0.31284 3.1036-1.6976 3.6904-2.8764 0.53618-4.3097 0.56302-5.5355 0.51665-0.31569 1.0087-0.49614 2.0174-0.51665 3.0261 0.32135 0.0939 0.58892 0.34905 0.81188 0.73807-0.52402 1.1708-1.4196 1.8306-2.7309 1.919 0.28198 0.86033 0.69838 1.4787 0.51665 3.1737-0.93658 0.5328-1.8488 1.1874-2.8785 1.2547-0.36861 0.45579-0.76547 0.86919-1.3285 1.0333-4.0894-0.59998-6.3833-1.6655-7.8236-2.9523-3.2833-2.6192-4.2979-5.3292-5.1665-8.045-0.66164-4.1203-0.46974-7.8363 0.73807-11.071 1.6747-4.0926 4.1436-6.841 7.0958-8.7715z"/><path d="m255.23 197.29v-7.8974c-2.867-2.8017-6.0144-2.3778-9.1521-2.0666-4.0435 1.6603-7.2795 4.8202-8.414 11.883-0.36135 4.9769 0.0731 9.7998 3.9856 13.95 3.2732 2.6968 7.0193 4.6556 13.728 1.9928l-0.29523-8.7092c-2.0653 3.6219-4.8758 4.2625-8.1926 2.8785-3.1351-1.8949-3.8692-5.175-3.3951-9.1521 0.66128-3.5336 2.2457-6.0978 5.6832-6.7164 2.5553-0.25758 4.4687 1.3188 6.0522 3.838z"/><path d="m513.09 197.55v-7.8974c-2.867-2.8017-6.0144-2.3778-9.1521-2.0666-4.0435 1.6603-7.2795 4.8202-8.414 11.883-0.36135 4.9769 0.0731 9.7998 3.9856 13.95 3.2732 2.6968 7.0193 4.6556 13.728 1.9928l-0.29523-8.7092c-2.0653 3.6219-4.8758 4.2625-8.1926 2.8785-3.1351-1.8949-3.8692-5.175-3.3951-9.1521 0.66128-3.5336 2.2457-6.0978 5.6832-6.7164 2.5553-0.25758 4.4687 1.3188 6.0522 3.838z"/><path d="m449.46 154.88v-7.8974c-2.867-2.8017-6.0144-2.3778-9.1521-2.0666-4.0435 1.6603-7.2795 4.8202-8.414 11.883-0.36135 4.9769 0.0731 9.7998 3.9856 13.95 3.2732 2.6968 7.0193 4.6556 13.728 1.9928l-0.29523-8.7092c-2.0653 3.6219-4.8758 4.2625-8.1926 2.8785-3.1351-1.8949-3.8692-5.175-3.3951-9.1521 0.66128-3.5336 2.2457-6.0978 5.6832-6.7164 2.5553-0.25758 4.4687 1.3188 6.0522 3.838z"/><path d="m314.81 154.75v-7.8974c-2.867-2.8017-6.0144-2.3778-9.1521-2.0666-4.0435 1.6603-7.2795 4.8202-8.414 11.883-0.36135 4.9769 0.0731 9.7998 3.9856 13.95 3.2732 2.6968 7.0193 4.6556 13.728 1.9928l-0.29523-8.7092c-2.0653 3.6219-4.8758 4.2625-8.1926 2.8785-3.1351-1.8949-3.8692-5.175-3.3951-9.1521 0.66128-3.5336 2.2457-6.0978 5.6832-6.7164 2.5553-0.25758 4.4687 1.3188 6.0522 3.838z"/></g></g></g></svg>
